<?xml version="1.0" encoding="UTF-8"?>
<svg width="295px" height="416px" viewBox="0 0 295 416" version="1.1" xmlns="http://www.w3.org/2000/svg" xmlns:xlink="http://www.w3.org/1999/xlink">
    <!-- Generator: Sketch 60.1 (88133) - https://sketch.com -->
    <title>LogoRiemer</title>
    <desc>Created with Sketch.</desc>
    <g id="LogoRiemer" stroke="none" stroke-width="1" fill="none" fill-rule="evenodd">
        <g id="Logo" transform="translate(-40.000000, -14.000000)">
            <g id="Group-13" stroke-width="1" fill-rule="evenodd" transform="translate(52.000000, 320.000000)">
                <path d="M51.9832852,12.584618 C51.152939,9.39522242 49.5634789,3.27272829 48.7331326,0.0833327465" id="Fill-2" fill="#F1A948"></path>
                <path d="M187.926539,66.5415505 C194.831891,63.9834695 200.21692,60.0635927 204.080928,54.7623662 C207.941445,49.4646315 209.114684,44.3687218 207.590171,39.4676538 C206.229772,35.0861631 203.634678,33.4862277 199.805588,34.6818146 C195.234144,36.0966854 191.791245,39.9069202 189.483874,46.1048369 C187.17371,52.3146256 186.653434,59.1256995 187.926539,66.5415505 M189.064162,71.615811 C192.18442,81.6616737 197.910248,85.3846138 206.242343,82.8006937 C209.827008,81.6847195 213.325776,79.6490094 216.738646,76.6900716 C220.202495,73.688534 225.390588,76.9966502 221.055189,81.5331761 C220.417589,82.1952183 219.835858,82.769966 219.327454,83.2134225 C214.662431,87.2883345 209.785805,90.1187746 204.696181,91.6998545 C198.649109,93.5777359 193.248018,93.0693322 188.49989,90.1753415 C183.749667,87.2806526 180.300482,82.3816796 178.155829,75.4749308 C175.057918,65.5163627 175.598446,56.0033462 179.766938,46.9414683 C183.93543,37.8907641 190.502079,31.9686984 199.47736,29.1794613 C203.811363,27.8330293 207.628581,27.8707406 210.926222,29.2974836 C214.221768,30.7158462 216.454414,33.2997664 217.617877,37.0471491 C219.527184,43.1954824 217.594133,49.7558462 211.829197,56.7456995 C206.055881,63.7376479 198.468933,68.6903944 189.064162,71.615811" id="Fill-4" fill="#FFFFFE"></path>
                <path d="M76.4067083,64.9941315 C83.3099654,62.433257 88.6956931,58.5126819 92.5590029,53.2114554 C96.4216144,47.9179108 97.5941555,42.817811 96.0696426,37.9209331 C94.7092435,33.5352523 92.1127529,31.9353169 88.2829642,33.1316021 C83.7115205,34.5457746 80.2714149,38.3601995 77.9612506,44.5623063 C75.6510863,50.7637148 75.1301121,57.5740904 76.4067083,64.9941315 M77.5415381,70.0690904 C80.6624947,80.1149531 86.3883222,83.8378932 94.7211156,81.2532746 C98.3057811,80.1338087 101.804549,78.1022887 105.217418,75.1426526 C108.68057,72.1383216 113.869361,75.4534214 109.531168,79.985757 C108.89706,80.6484977 108.312536,81.2232453 107.805529,81.6667019 C103.141204,85.7416138 98.2652764,88.5678638 93.175652,90.149642 C87.1292788,92.0310153 81.7267905,91.5226115 76.9793609,88.6244308 C72.2284396,85.7297418 68.7799536,80.8342606 66.6359982,73.9282101 C63.5366907,63.9654519 64.0772189,54.4524354 68.2450123,45.3982394 C72.4135041,36.3440434 78.9822482,30.4219777 87.9561332,27.6285505 C92.2908339,26.2821185 96.1073539,26.32402 99.4063914,27.7507629 C102.699842,29.1691256 104.932489,31.7530458 106.097348,35.4990317 C108.005259,41.6445716 106.073604,48.2091256 100.306573,55.1989789 C94.5346543,62.1867371 86.9463093,67.1478638 77.5415381,70.0690904" id="Fill-6" fill="#FFFFFE"></path>
                <path d="M125.376,90 L125.376,54.606 L124.56,47.16 L139.452,90 L148.632,90 L163.524,47.16 L162.708,54.606 L162.708,90 L173.826,90 L173.826,25.74 L160.77,25.74 L145.47,69.294 C144.45,72.252 144.042,75.006 144.042,75.006 C144.042,75.006 143.634,72.354 142.614,69.294 L127.314,25.74 L114.258,25.74 L114.258,90 L125.376,90 Z" id="M" fill="#FFFFFE" fill-rule="nonzero"></path>
                <polygon id="I" fill="#FFFFFE" fill-rule="nonzero" points="58.646 90 58.646 25.74 47.63 25.74 47.63 90"></polygon>
                <path d="M11.666,90 L11.666,67.05 L32.576,90 L42.572,90 L42.572,85.512 L24.314,66.54 C33.698,65.724 39.818,55.83 39.818,46.14 C39.818,34.716 33.086,25.74 15.338,25.74 L0.548,25.74 L0.548,90 L11.666,90 Z M17.48,58.686 C14.828,58.686 11.666,57.36 11.666,57.36 L11.666,35.328 L15.338,35.328 C24.62,35.328 28.496,39.408 28.496,46.038 C28.496,52.77 24.722,58.686 17.48,58.686 Z" id="R" fill="#FFFFFE" fill-rule="nonzero"></path>
                <path d="M238.666,90 L238.666,67.05 L259.576,90 L269.572,90 L269.572,85.512 L251.314,66.54 C260.698,65.724 266.818,55.83 266.818,46.14 C266.818,34.716 260.086,25.74 242.338,25.74 L227.548,25.74 L227.548,90 L238.666,90 Z M244.48,58.686 C241.828,58.686 238.666,57.36 238.666,57.36 L238.666,35.328 L242.338,35.328 C251.62,35.328 255.496,39.408 255.496,46.038 C255.496,52.77 251.722,58.686 244.48,58.686 Z" id="R" fill="#FFFFFE" fill-rule="nonzero"></path>
                <path d="M53.389473,16.7227855 C52.5590603,13.5296422 50.969473,7.39995358 50.1390603,4.20681022" id="Fill-11" fill="#EB8B2D"></path>
                <path d="M58.516381,15.3476434 C57.431746,11.1756516 56.3506032,7.00296063 55.2659683,2.83166804 C54.5940952,0.248207403 44.3323175,2.96730846 45.011873,5.5815329 C46.0965079,9.75352468 47.1776508,13.9262156 48.2622857,18.0982074 C48.9341587,20.6809689 59.1966349,17.9611686 58.516381,15.3476434" id="Fill-12" fill="#EB8B2D"></path>
            </g>
            <g id="Riemer-R" transform="translate(72.000000, 25.000000)">
                <path d="M211.469809,53.8209261 C211.502432,40.3121188 207.53894,29.3140577 199.583321,20.819751 C191.62421,12.3296394 179.186877,8.06186033 162.272718,8.02245898 C150.547765,7.99264176 139.634369,10.7026535 129.524845,16.1485466 C119.423004,21.5923421 110.179512,29.0238991 101.797162,38.436925 C93.4127179,47.8562434 85.9830036,58.8808733 79.5108131,71.5171071 C73.0414163,84.1596335 67.5295433,97.657254 62.9786861,112.010668 C58.4243369,126.369675 54.9769718,141.105538 52.6344956,156.21756 C50.2955115,171.333776 49.1019242,186.183605 49.0690988,200.768447 L49.0390671,212.987272 C74.4284639,206.614269 97.1806544,197.235503 117.299829,184.847477 C137.412718,172.460151 154.458178,158.717119 168.433416,143.634463 C182.403765,128.545515 193.061543,113.079011 200.407448,97.2251623 C207.746369,81.3741106 211.43748,66.9095278 211.469809,53.8209261 M39.7676385,230.016437 C39.5818607,228.300656 39.4896702,226.591866 39.4938607,224.869093 C39.4980512,223.158905 39.4044639,221.331954 39.2172893,219.399428 C31.9084004,221.099827 24.6002099,222.370233 17.2962099,223.202254 C15.7555115,223.200856 14.9893528,223.521079 14.9879529,224.164322 C14.9865591,224.597113 15.463575,225.025709 16.4280829,225.459898 C20.2651623,226.326179 24.1574163,227.083388 28.0978607,227.738517 C32.0348131,228.393646 35.9228766,229.153652 39.7676385,230.016437 M224.459577,47.7415783 C224.426559,61.6831764 220.349226,77.1168192 212.235765,94.0390107 C204.118115,110.962601 192.451131,127.443611 177.231321,143.493229 C162.001734,159.541449 143.60694,174.188517 122.049035,187.433035 C100.488337,200.679651 76.2422417,210.593288 49.3184321,217.173946 C49.311448,219.535068 49.4001464,221.99827 49.5894163,224.571243 C49.7696067,227.147013 49.9560829,229.718588 50.1481464,232.293658 C68.7755115,236.199263 87.6570988,240.966954 106.769162,246.58904 C125.877035,252.210427 145.517099,259.871314 165.678877,269.568206 C168.559131,271.074933 169.992273,272.685139 169.988781,274.404416 C169.986686,275.477654 169.407702,277.136802 168.251131,279.384657 C167.091067,281.636708 165.64675,282.758887 163.915385,282.753315 C163.337099,282.753315 162.281099,282.428876 160.744591,281.780738 C156.139258,279.19518 149.993924,276.068458 142.31767,272.408265 C134.635131,268.741079 125.944781,264.862042 116.250115,260.762066 C106.549861,256.66978 96.0869401,252.620145 84.851575,248.624346 C73.6162099,244.629246 62.135702,240.906825 50.4226226,237.445897 C50.9799559,244.955762 51.6329718,251.871326 52.3879559,258.195386 C53.1387496,264.520844 54.0920829,269.187853 55.2374798,272.195015 C55.2367813,273.266854 54.8016702,274.017771 53.9335433,274.446367 C53.0682099,274.86867 51.3850353,275.296567 48.8854163,275.722366 C47.7344321,275.71887 46.6777337,275.233641 45.7160194,274.264581 C44.7536067,273.296919 43.8952575,271.20498 43.1381782,267.985268 C42.5703686,265.624146 41.9508766,261.500397 41.2950671,255.59934 C40.6357655,249.698282 40.1217337,242.675045 39.7564639,234.520538 C34.1880194,233.008917 28.7103686,231.708447 23.3332893,230.619827 C17.9541147,229.5382 12.5770353,228.454475 7.19506706,227.363059 C5.0851623,226.930967 3.35449563,226.390503 2.0051623,225.745162 C0.669098806,225.099122 -0.0041710354,223.920309 0,222.20243 C0.00281309158,220.700597 1.54560674,219.951079 4.61932103,219.960867 C10.5767813,219.546255 16.4427496,218.916296 22.2109401,218.07169 C27.9805274,217.228482 33.6502417,216.280397 39.2277655,215.216948 L39.2508131,205.569698 C39.2857337,191.844845 40.3766544,177.260004 42.5347496,161.825662 C44.679575,146.387125 47.9851623,131.064651 52.4431306,115.847753 C56.9017972,100.633652 62.6057337,86.0047628 69.5626226,71.9743691 C76.5181147,57.9481706 84.8592575,45.63216 94.5909401,35.0438168 C104.323321,24.4484819 115.495131,15.9478827 128.100781,9.54621403 C140.705734,3.14314705 154.894686,-0.0381102951 170.65367,2.84217094e-14 C189.108527,0.0443926426 202.696146,4.53031509 211.422813,13.4504208 C220.146686,22.3726241 224.492908,33.8034761 224.459577,47.7415783" id="Fill-9" fill="#9E754E" fill-rule="evenodd"></path>
                <path d="M211.469809,53.8209261 C211.502432,40.3121188 207.53894,29.3140577 199.583321,20.819751 C191.62421,12.3296394 179.186877,8.06186033 162.272718,8.02245898 C150.547765,7.99264176 139.634369,10.7026535 129.524845,16.1485466 C119.423004,21.5923421 110.179512,29.0238991 101.797162,38.436925 C93.4127179,47.8562434 85.9830036,58.8808733 79.5108131,71.5171071 C73.0414163,84.1596335 67.5295433,97.657254 62.9786861,112.010668 C58.4243369,126.369675 54.9769718,141.105538 52.6344956,156.21756 C50.2955115,171.333776 49.1019242,186.183605 49.0690988,200.768447 L49.0390671,212.987272 C74.4284639,206.614269 97.1806544,197.235503 117.299829,184.847477 C137.412718,172.460151 154.458178,158.717119 168.433416,143.634463 C182.403765,128.545515 193.061543,113.079011 200.407448,97.2251623 C207.746369,81.3741106 211.43748,66.9095278 211.469809,53.8209261 Z M39.7676385,230.016437 C39.5818607,228.300656 39.4896702,226.591866 39.4938607,224.869093 C39.4980512,223.158905 39.4044639,221.331954 39.2172893,219.399428 C31.9084004,221.099827 24.6002099,222.370233 17.2962099,223.202254 C15.7555115,223.200856 14.9893528,223.521079 14.9879529,224.164322 C14.9865591,224.597113 15.463575,225.025709 16.4280829,225.459898 C20.2651623,226.326179 24.1574163,227.083388 28.0978607,227.738517 C32.0348131,228.393646 35.9228766,229.153652 39.7676385,230.016437 Z M224.459577,47.7415783 C224.426559,61.6831764 220.349226,77.1168192 212.235765,94.0390107 C204.118115,110.962601 192.451131,127.443611 177.231321,143.493229 C162.001734,159.541449 143.60694,174.188517 122.049035,187.433035 C100.488337,200.679651 76.2422417,210.593288 49.3184321,217.173946 C49.311448,219.535068 49.4001464,221.99827 49.5894163,224.571243 C49.7696067,227.147013 49.9560829,229.718588 50.1481464,232.293658 C68.7755115,236.199263 87.6570988,240.966954 106.769162,246.58904 C125.877035,252.210427 145.517099,259.871314 165.678877,269.568206 C168.559131,271.074933 169.992273,272.685139 169.988781,274.404416 C169.986686,275.477654 169.407702,277.136802 168.251131,279.384657 C167.091067,281.636708 165.64675,282.758887 163.915385,282.753315 C163.337099,282.753315 162.281099,282.428876 160.744591,281.780738 C156.139258,279.19518 149.993924,276.068458 142.31767,272.408265 C134.635131,268.741079 125.944781,264.862042 116.250115,260.762066 C106.549861,256.66978 96.0869401,252.620145 84.851575,248.624346 C73.6162099,244.629246 62.135702,240.906825 50.4226226,237.445897 C50.9799559,244.955762 51.6329718,251.871326 52.3879559,258.195386 C53.1387496,264.520844 54.0920829,269.187853 55.2374798,272.195015 C55.2367813,273.266854 54.8016702,274.017771 53.9335433,274.446367 C53.0682099,274.86867 51.3850353,275.296567 48.8854163,275.722366 C47.7344321,275.71887 46.6777337,275.233641 45.7160194,274.264581 C44.7536067,273.296919 43.8952575,271.20498 43.1381782,267.985268 C42.5703686,265.624146 41.9508766,261.500397 41.2950671,255.59934 C40.6357655,249.698282 40.1217337,242.675045 39.7564639,234.520538 C34.1880194,233.008917 28.7103686,231.708447 23.3332893,230.619827 C17.9541147,229.5382 12.5770353,228.454475 7.19506706,227.363059 C5.0851623,226.930967 3.35449563,226.390503 2.0051623,225.745162 C0.669098806,225.099122 -0.0041710354,223.920309 0,222.20243 C0.00281309158,220.700597 1.54560674,219.951079 4.61932103,219.960867 C10.5767813,219.546255 16.4427496,218.916296 22.2109401,218.07169 C27.9805274,217.228482 33.6502417,216.280397 39.2277655,215.216948 L39.2508131,205.569698 C39.2857337,191.844845 40.3766544,177.260004 42.5347496,161.825662 C44.679575,146.387125 47.9851623,131.064651 52.4431306,115.847753 C56.9017972,100.633652 62.6057337,86.0047628 69.5626226,71.9743691 C76.5181147,57.9481706 84.8592575,45.63216 94.5909401,35.0438168 C104.323321,24.4484819 115.495131,15.9478827 128.100781,9.54621403 C140.705734,3.14314705 154.894686,-0.0381102951 170.65367,2.84217094e-14 C189.108527,0.0443926426 202.696146,4.53031509 211.422813,13.4504208 C220.146686,22.3726241 224.492908,33.8034761 224.459577,47.7415783 Z" id="Stroke-10" stroke="#9D754F" stroke-width="2"></path>
            </g>
        </g>
    </g>
</svg>