<?xml version="1.0" encoding="UTF-8"?>
<svg width="316px" height="200px" viewBox="0 0 316 200" version="1.1" xmlns="http://www.w3.org/2000/svg" xmlns:xlink="http://www.w3.org/1999/xlink">
    <!-- Generator: Sketch 60 (88103) - https://sketch.com -->
    <title>logo-white</title>
    <desc>Created with Sketch.</desc>
    <g id="Page-1" stroke="none" stroke-width="1" fill="none" fill-rule="evenodd" stroke-linecap="round" stroke-linejoin="round">
        <g id="logo-bg-white" transform="translate(-98.000000, -171.000000)" stroke="#FFFFFF">
            <g id="Logo-Wit" transform="translate(99.000000, 102.000000)">
                <g id="Logo">
                    <path d="M107.730706,105.144789 C38.0123336,213.32277 2.10209823,267.41176 0,267.41176" id="Path" stroke-width="2"></path>
                    <path d="M269.528435,9 C199.810062,117.177981 163.899827,171.266972 161.797729,171.266972" id="Path" stroke-width="2" transform="translate(215.663082, 90.133486) rotate(56.000000) translate(-215.663082, -90.133486) "></path>
                    <path d="M90.7977287,157.41176 C43.5554765,230.745094 19.2221431,267.41176 17.7977287,267.41176" id="Path" stroke-width="2"></path>
                    <path d="M109.258152,216 C106.518902,216 131.254107,180.326997 124.073858,180.326997 C119.287026,180.326997 106.528316,192.217998 85.7977287,216 C114.931345,172.385936 131.598012,149.052603 135.797729,146" id="Path-5" stroke-width="2"></path>
                    <path d="M76.258152,216 C73.5189025,216 98.2541071,180.326997 91.0738584,180.326997 C86.2870259,180.326997 73.528316,192.217998 52.7977287,216" id="Path-5" stroke-width="2"></path>
                    <path d="M67.3369309,194.36653 C100.615048,162.340175 114.860691,146.326997 110.073858,146.326997 C107.791207,146.326997 103.695782,149.030963 97.7875844,154.438895 C93.4665292,158.394073 86.803244,166.247775 77.7977287,178" id="Path-5" stroke-width="2"></path>
                    <path d="M126.420598,105.144789 C130.054131,105.144789 129.72309,108.065587 129.020126,111.41019 C128.317163,114.754793 123.205009,124.162809 118.453773,129.524224 C113.702537,134.885638 106.93494,140 102.061544,140 C97.1881484,140 97.9073602,130.721204 106.544299,120 C115.181237,109.278796 122.787064,105.144789 126.420598,105.144789 Z" id="Path-2" stroke-width="2"></path>
                    <path d="M151.171684,181 C154.805217,181 154.474176,183.920798 153.771212,187.265401 C153.068248,190.610005 147.956095,200.01802 143.204859,205.379435 C138.453623,210.74085 131.686026,215.855211 126.81263,215.855211 C121.939234,215.855211 122.658446,206.576415 131.295384,195.855211 C139.932323,185.134008 147.53815,181 151.171684,181 Z" id="Path-2" stroke-width="2"></path>
                    <path d="M213.032566,146 C210.500973,146 200.045101,161.583336 188.450848,178.82696 C182.354774,187.893383 175.943995,197.418791 170.204859,205.379435 C165.966813,211.257945 158.686026,215.855211 153.81263,215.855211 C148.939234,215.855211 149.658446,206.576415 158.295384,195.855211 C164.054008,188.706917 169.354254,184.486942 173.324359,182.468162" id="Path-2" stroke-width="2"></path>
                    <path d="M208.768215,213.870366 C208.768215,215.193596 210.101548,215.855211 212.768215,215.855211 C230.21207,215.710423 237.352215,177.353177 234.57047,181.772384 C231.788726,186.19159 186.686026,215.855211 181.81263,215.855211 C176.939234,215.855211 177.658446,206.576415 186.295384,195.855211 C192.054008,188.706917 197.354254,184.486942 201.324359,182.468162 C202.749527,181.743472 207.186063,180.161527 208.768215,181.772384 C211.593482,184.648909 208.993894,192.942911 190.061044,200.577773" id="Path-2" stroke-width="2"></path>
                    <path d="M144.797729,105.144789 C146.221221,105.144789 139.554555,116.763192 124.797729,140 C144.221641,116.155789 156.192078,104.537386 160.709042,105.144789 C167.484487,106.055894 144.507043,135.654661 148.463002,140" id="Path-4" stroke-width="2"></path>
                    <path d="M278.797729,105.817829 C280.221221,105.817829 273.554555,117.436232 258.797729,140.67304 C278.221641,116.828829 290.192078,105.210425 294.709042,105.817829 C301.484487,106.728933 278.507043,136.327701 282.463002,140.67304" id="Path-4" stroke-width="2"></path>
                    <path d="M191.886316,108.644499 C187.414472,100.91168 178.642373,108.251664 170.304953,117.875559 C161.967534,127.499454 156.644452,139.167876 161.967534,139.167876 C167.290616,139.167876 189.29104,123.640857 189.29104,117.875559 C189.29104,112.110262 173.680319,140 176.365435,140" id="Path-3" stroke-width="2"></path>
                    <path d="M263.8516,108.644499 C259.379756,100.91168 250.607657,108.251664 242.270237,117.875559 C233.932818,127.499454 228.609736,139.167876 233.932818,139.167876 C239.2559,139.167876 261.256324,123.640857 261.256324,117.875559 C261.256324,112.110262 245.645604,140 248.330719,140" id="Path-3" stroke-width="2"></path>
                    <path d="M184.797729,140 C212.766001,97.6320525 228.766001,74.9653858 232.797729,72" id="Path-5" stroke-width="2"></path>
                    <path d="M218.258152,140 C215.518902,140 240.254107,104.326997 233.073858,104.326997 C228.287026,104.326997 215.528316,116.217998 194.797729,140 C223.931345,96.3859364 240.598012,73.0526031 244.797729,70" id="Path-5" stroke-width="2"></path>
                </g>
            </g>
        </g>
    </g>
</svg>