<?xml version="1.0" encoding="UTF-8"?>
<svg width="351px" height="154px" viewBox="0 0 351 154" version="1.1" xmlns="http://www.w3.org/2000/svg" xmlns:xlink="http://www.w3.org/1999/xlink">
    <!-- Generator: Sketch 60.1 (88133) - https://sketch.com -->
    <title>logo</title>
    <desc>Created with Sketch.</desc>
    <g id="logo" stroke="none" stroke-width="1" fill="none" fill-rule="evenodd">
        <g id="Group" transform="translate(15.000000, 10.000000)">
            <g id="Riemer-R-))" transform="translate(0.000000, 10.800000)">
                <g id="Riemer-R">
                    <path d="M79.2672786,20.1971108 C79.2795071,15.127728 77.7938329,11.0005404 74.8117511,7.81292424 C71.8283603,4.62688235 67.1663541,3.02533416 60.826256,3.01054821 C56.4312784,2.99935885 52.3405041,4.01633146 48.5510533,6.05998462 C44.7644822,8.10285064 41.2996544,10.891654 38.1576172,14.4240333 C35.0147946,17.958774 32.2298428,22.0959319 29.8038089,26.8378685 C27.3788222,31.5821664 25.3127534,36.6473511 23.6069115,42.0336852 C21.8997606,47.4221182 20.6075513,52.9519723 19.7294983,58.6229852 C18.8527542,64.2955724 18.4053503,69.8681939 18.393046,75.3413747 L18.3817889,79.9266722 C27.8987427,77.5351074 36.4271668,74.0155846 43.9686321,69.3667918 C51.5077412,64.7182615 57.8970563,59.5609824 63.1355303,53.9009894 C68.3721718,48.2386349 72.3671299,42.434597 75.1206666,36.4852023 C77.8715854,30.5368571 79.2551604,25.1088051 79.2672786,20.1971108 M14.9064895,86.3171224 C14.8368526,85.6732497 14.8022959,85.0320007 14.8038667,84.3855042 C14.8054374,83.7437304 14.7703572,83.0581398 14.7001967,82.3329302 C11.9605351,82.9710306 9.22113517,83.4477694 6.48330604,83.7599978 C5.90579112,83.759473 5.61860442,83.8796416 5.61807968,84.1210283 C5.61755725,84.2834396 5.79636173,84.4442766 6.15789759,84.6072126 C7.59618725,84.9322975 9.05515854,85.2164516 10.5321935,85.4622987 C12.0079196,85.7081458 13.4653201,85.9933494 14.9064895,86.3171224 M84.1363593,17.9157442 C84.1239829,23.1475383 82.5956365,28.9392445 79.5543895,35.289551 C76.5115718,41.6403823 72.138323,47.825129 66.4333343,53.8479892 C60.7246804,59.8703247 53.8295816,65.366857 45.7488231,70.3370613 C37.6670175,75.3080528 28.5786186,79.028294 18.486506,81.4977847 C18.4838881,82.3838313 18.5171358,83.3081849 18.5880817,84.2737316 C18.6556242,85.2403279 18.7255229,86.2053499 18.7975159,87.1716838 C25.7797917,88.6373207 32.8573602,90.4264684 40.0213202,92.5362405 C47.1837095,94.6457502 54.5455849,97.5206132 62.1030195,101.159518 C63.182653,101.72494 63.7198519,102.329193 63.7185429,102.974378 C63.7177575,103.377127 63.5007313,103.999747 63.0672024,104.843288 C62.6323646,105.688404 62.090977,106.109519 61.4419927,106.107428 C61.2252282,106.107428 60.8293975,105.985677 60.2534534,105.742454 C58.5271916,104.772184 56.2236767,103.598835 53.3463121,102.225292 C50.4665912,100.849126 47.2091034,99.393459 43.5751575,97.8548813 C39.9391173,96.3191897 36.0171993,94.7995031 31.8057385,93.3000195 C27.5942776,91.8007982 23.2909276,90.403904 18.9004005,89.1051386 C19.1093111,91.9233282 19.3540874,94.5184975 19.6370854,96.8916959 C19.9185127,99.2654192 20.2758598,101.016785 20.7052,102.145267 C20.7049383,102.547491 20.5418413,102.829284 20.2164329,102.990121 C19.8920716,103.148596 19.2611509,103.309171 18.3241945,103.468958 C17.89276,103.467647 17.4966675,103.285557 17.1361788,102.921903 C16.7754283,102.558773 16.4536849,101.773742 16.1699015,100.565496 C15.957064,99.6794498 15.7248538,98.1319512 15.4790303,95.9174908 C15.2318979,93.7030303 15.0392184,91.067455 14.9023008,88.007354 C12.8150268,87.4400953 10.7617858,86.9520743 8.74624303,86.5435536 C6.72991486,86.1376567 4.71437208,85.7309726 2.69699674,85.3214023 C1.90612068,85.1592534 1.25739812,84.9564361 0.751614423,84.7142623 C0.250804792,84.4718261 -0.00156346964,84.0294588 4.05741572e-15,83.3847989 C0.00105445839,82.8212135 0.579354759,82.5399455 1.73150488,82.5436188 C3.96459749,82.3880293 6.16339524,82.1516278 8.325542,81.8346766 C10.4882123,81.5182501 12.6134463,81.1624671 14.7041236,80.763392 L14.7127628,77.1431164 C14.7258524,71.9926592 15.1347728,66.5194784 15.9437126,60.7275098 C16.7476782,54.9339669 17.9867436,49.1839786 19.657767,43.4736092 C21.3290523,37.7642893 23.4671141,32.2745788 26.0748322,27.0094629 C28.6820267,21.7459212 31.8086182,17.1241533 35.4564391,13.1507185 C39.1045218,9.17466001 43.2921595,5.98468247 48.0172578,3.58236018 C52.7420943,1.17951313 58.0606768,-0.0143014606 63.9677696,9.08894813e-15 C70.8853827,0.0166590058 75.9785616,1.70006877 79.2496627,5.04747242 C82.5197166,8.39566319 84.1488532,12.685262 84.1363593,17.9157442" id="Fill-9" fill="#9E754E" fill-rule="evenodd"></path>
                    <path d="M79.2672786,20.1971108 C79.2795071,15.127728 77.7938329,11.0005404 74.8117511,7.81292424 C71.8283603,4.62688235 67.1663541,3.02533416 60.826256,3.01054821 C56.4312784,2.99935885 52.3405041,4.01633146 48.5510533,6.05998462 C44.7644822,8.10285064 41.2996544,10.891654 38.1576172,14.4240333 C35.0147946,17.958774 32.2298428,22.0959319 29.8038089,26.8378685 C27.3788222,31.5821664 25.3127534,36.6473511 23.6069115,42.0336852 C21.8997606,47.4221182 20.6075513,52.9519723 19.7294983,58.6229852 C18.8527542,64.2955724 18.4053503,69.8681939 18.393046,75.3413747 L18.3817889,79.9266722 C27.8987427,77.5351074 36.4271668,74.0155846 43.9686321,69.3667918 C51.5077412,64.7182615 57.8970563,59.5609824 63.1355303,53.9009894 C68.3721718,48.2386349 72.3671299,42.434597 75.1206666,36.4852023 C77.8715854,30.5368571 79.2551604,25.1088051 79.2672786,20.1971108 Z M14.9064895,86.3171224 C14.8368526,85.6732497 14.8022959,85.0320007 14.8038667,84.3855042 C14.8054374,83.7437304 14.7703572,83.0581398 14.7001967,82.3329302 C11.9605351,82.9710306 9.22113517,83.4477694 6.48330604,83.7599978 C5.90579112,83.759473 5.61860442,83.8796416 5.61807968,84.1210283 C5.61755725,84.2834396 5.79636173,84.4442766 6.15789759,84.6072126 C7.59618725,84.9322975 9.05515854,85.2164516 10.5321935,85.4622987 C12.0079196,85.7081458 13.4653201,85.9933494 14.9064895,86.3171224 Z M84.1363593,17.9157442 C84.1239829,23.1475383 82.5956365,28.9392445 79.5543895,35.289551 C76.5115718,41.6403823 72.138323,47.825129 66.4333343,53.8479892 C60.7246804,59.8703247 53.8295816,65.366857 45.7488231,70.3370613 C37.6670175,75.3080528 28.5786186,79.028294 18.486506,81.4977847 C18.4838881,82.3838313 18.5171358,83.3081849 18.5880817,84.2737316 C18.6556242,85.2403279 18.7255229,86.2053499 18.7975159,87.1716838 C25.7797917,88.6373207 32.8573602,90.4264684 40.0213202,92.5362405 C47.1837095,94.6457502 54.5455849,97.5206132 62.1030195,101.159518 C63.182653,101.72494 63.7198519,102.329193 63.7185429,102.974378 C63.7177575,103.377127 63.5007313,103.999747 63.0672024,104.843288 C62.6323646,105.688404 62.090977,106.109519 61.4419927,106.107428 C61.2252282,106.107428 60.8293975,105.985677 60.2534534,105.742454 C58.5271916,104.772184 56.2236767,103.598835 53.3463121,102.225292 C50.4665912,100.849126 47.2091034,99.393459 43.5751575,97.8548813 C39.9391173,96.3191897 36.0171993,94.7995031 31.8057385,93.3000195 C27.5942776,91.8007982 23.2909276,90.403904 18.9004005,89.1051386 C19.1093111,91.9233282 19.3540874,94.5184975 19.6370854,96.8916959 C19.9185127,99.2654192 20.2758598,101.016785 20.7052,102.145267 C20.7049383,102.547491 20.5418413,102.829284 20.2164329,102.990121 C19.8920716,103.148596 19.2611509,103.309171 18.3241945,103.468958 C17.89276,103.467647 17.4966675,103.285557 17.1361788,102.921903 C16.7754283,102.558773 16.4536849,101.773742 16.1699015,100.565496 C15.957064,99.6794498 15.7248538,98.1319512 15.4790303,95.9174908 C15.2318979,93.7030303 15.0392184,91.067455 14.9023008,88.007354 C12.8150268,87.4400953 10.7617858,86.9520743 8.74624303,86.5435536 C6.72991486,86.1376567 4.71437208,85.7309726 2.69699674,85.3214023 C1.90612068,85.1592534 1.25739812,84.9564361 0.751614423,84.7142623 C0.250804792,84.4718261 -0.00156346964,84.0294588 4.05741572e-15,83.3847989 C0.00105445839,82.8212135 0.579354759,82.5399455 1.73150488,82.5436188 C3.96459749,82.3880293 6.16339524,82.1516278 8.325542,81.8346766 C10.4882123,81.5182501 12.6134463,81.1624671 14.7041236,80.763392 L14.7127628,77.1431164 C14.7258524,71.9926592 15.1347728,66.5194784 15.9437126,60.7275098 C16.7476782,54.9339669 17.9867436,49.1839786 19.657767,43.4736092 C21.3290523,37.7642893 23.4671141,32.2745788 26.0748322,27.0094629 C28.6820267,21.7459212 31.8086182,17.1241533 35.4564391,13.1507185 C39.1045218,9.17466001 43.2921595,5.98468247 48.0172578,3.58236018 C52.7420943,1.17951313 58.0606768,-0.0143014606 63.9677696,9.08894813e-15 C70.8853827,0.0166590058 75.9785616,1.70006877 79.2496627,5.04747242 C82.5197166,8.39566319 84.1488532,12.685262 84.1363593,17.9157442 Z" id="Stroke-10" stroke="#9D754F" stroke-width="1.8"></path>
                </g>
                <g id="Group" stroke-width="1" fill-rule="evenodd" transform="translate(95.157103, 26.392802) rotate(-30.000000) translate(-95.157103, -26.392802) translate(77.523515, 8.238956)" fill="#EB8B2D">
                    <path d="M32.2084425,7.41881883 C29.5154749,12.1175693 26.7122476,17.1186983 21.663194,21.5747948 C16.6108967,26.0305032 10.5085667,30.0971887 3.35689923,33.7744632 C1.32647537,34.8185052 0.927062713,34.0957138 2.15866126,31.6060892 C9.82095046,27.4502885 15.7244018,23.484372 19.8690153,19.7083398 C23.2124335,16.6622525 24.9050951,13.9250032 27.1508027,10.6236523 C30.3084227,5.98172488 31.477714,2.95234208 32.2084425,1.93363895 C33.4588671,0.190431483 33.6044956,4.98189731 32.2084425,7.41881883 Z" id="Fill-9" transform="translate(17.331393, 17.898704) rotate(-4.000000) translate(-17.331393, -17.898704) "></path>
                    <path d="M20.1096067,12.4639902 C15.515925,16.8240102 9.8300733,19.9342776 2.58467317,23.5050396 C0.52763776,24.5188408 1.16028374,23.8984936 4.48261112,21.6439981 C7.34675712,19.758562 10.8782974,16.9825143 15.0772318,13.3158551 C18.4644702,10.3579979 19.7747936,8.6473341 22.0499343,5.44160705 C25.2489393,0.934133354 24.7032884,8.10397017 20.1096067,12.4639902 Z" id="Fill-9" transform="translate(12.740654, 13.992135) rotate(-8.000000) translate(-12.740654, -13.992135) "></path>
                </g>
            </g>
            <g id="LogoTextOutline" transform="translate(118.800000, 0.000000)">
                <g id="LogoRiemerDia" transform="translate(2.124756, 1.061174)">
                    <g id="Group-13">
                        <path d="M42.9922829,10.0821301 C42.3571408,7.64528854 41.1413433,2.96742785 40.5062013,0.530586318" id="Fill-2" fill="#F1A948"></path>
                        <path d="M146.976947,51.3076515 C152.258936,49.3531627 156.378011,46.3582007 159.333638,42.3078254 C162.286594,38.2601179 163.18402,34.3666139 162.017901,30.6219777 C160.977315,27.2743219 158.992296,26.0518993 156.063378,26.9653814 C152.566624,28.0464064 149.933108,30.9575969 148.168172,35.6930838 C146.401099,40.4376415 146.003134,45.6416081 146.976947,51.3076515 M147.847129,55.1846147 C150.233853,62.8601053 154.613609,65.7045988 160.98693,63.7303677 C163.728885,62.8777133 166.405135,61.3223393 169.015681,59.0615778 C171.665223,56.7682682 175.633658,59.2958177 172.317458,62.7619273 C171.82975,63.2677573 171.384777,63.7068903 170.995893,64.0457111 C167.427559,67.159127 163.697368,69.3217105 159.804252,70.5297265 C155.178773,71.9645123 151.047412,71.576069 147.41551,69.3649301 C143.782006,67.1532577 141.143683,63.4102221 139.503211,58.1331556 C137.133581,50.524362 137.547037,43.2559899 140.735568,36.3323079 C143.924099,29.4171631 148.947009,24.8924387 155.812312,22.7613362 C159.127444,21.7326017 162.047281,21.7614148 164.569687,22.8515105 C167.09049,23.9352034 168.798269,25.9094345 169.688216,28.7726033 C171.148669,33.4702063 169.670054,38.4826191 165.260384,43.8231812 C160.844304,49.165344 155.040954,52.9494649 147.847129,55.1846147" id="Fill-4" fill="#FFFFFE"></path>
                        <path d="M61.6740592,50.1253539 C66.9544453,48.1687307 71.0740545,45.1732351 74.0291477,41.1228598 C76.9837066,37.0783538 77.8805977,33.1816484 76.7144791,29.4402136 C75.6738931,26.0893564 73.6878056,24.8669338 70.7583531,25.7809494 C67.2615997,26.8614408 64.6302207,29.7758328 62.8631476,34.5145212 C61.0960746,39.252676 60.697575,44.456109 61.6740592,50.1253539 M62.5421044,54.0028506 C64.9293624,61.6783412 69.3091182,64.5228347 75.6829742,62.54807 C78.4249289,61.6927477 81.1011792,60.1405752 83.7117251,57.8792801 C86.3607322,55.5838362 90.3297022,58.1167214 87.0113655,61.5796296 C86.5263285,62.0859932 86.0792184,62.5251263 85.6914025,62.863947 C82.1236029,65.9773629 78.3939463,68.1367449 74.5008301,69.3452945 C69.875885,70.7827482 65.7434553,70.3943049 62.1120882,68.1799646 C58.4780501,65.9682921 55.8402608,62.2279244 54.200323,56.9513915 C51.8296246,49.3393964 52.2430813,42.0710243 55.4310777,35.1532117 C58.6196082,28.235399 63.6441213,23.7106746 70.5083561,21.5763706 C73.8240219,20.5476361 76.7433249,20.5796507 79.2667992,21.6697464 C81.7860001,22.7534393 83.493779,24.7276704 84.3847941,27.589772 C85.8441785,32.2852407 84.3666319,37.300855 79.9553594,42.6414171 C75.5403477,47.9803784 69.7359294,51.7709022 62.5421044,54.0028506" id="Fill-6" fill="#FFFFFE"></path>
                        <path d="M99.1312717,69.2309613 L99.1312717,42.1883546 L98.5071033,36.4992759 L109.898177,69.2309613 L116.920072,69.2309613 L128.311145,36.4992759 L127.686977,42.1883546 L127.686977,69.2309613 L136.191272,69.2309613 L136.191272,20.1334332 L126.204577,20.1334332 L114.501419,53.4106467 C113.721209,55.6706916 113.409124,57.7748714 113.409124,57.7748714 C113.409124,57.7748714 113.09704,55.7486242 112.31683,53.4106467 L100.613672,20.1334332 L90.626977,20.1334332 L90.626977,69.2309613 L99.1312717,69.2309613 Z" id="M" fill="#FFFFFE" fill-rule="nonzero"></path>
                        <polygon id="I" fill="#FFFFFE" fill-rule="nonzero" points="48.0886752 69.2309613 48.0886752 20.1334332 39.6624016 20.1334332 39.6624016 69.2309613"></polygon>
                        <path d="M12.1530963,69.2309613 L12.1530963,51.6961298 L28.1474121,69.2309613 L35.7934752,69.2309613 L35.7934752,65.8019276 L21.8277068,51.3064669 C29.0056437,50.6830062 33.6869068,43.1235456 33.6869068,35.7199501 C33.6869068,26.9915006 28.5375173,20.1334332 14.9618542,20.1334332 L3.64880156,20.1334332 L3.64880156,69.2309613 L12.1530963,69.2309613 Z M16.6002963,45.3056579 C14.5717489,45.3056579 12.1530963,44.2925343 12.1530963,44.2925343 L12.1530963,27.4590961 L14.9618542,27.4590961 C22.06177,27.4590961 25.02657,30.5763995 25.02657,35.6420175 C25.02657,40.785568 22.139791,45.3056579 16.6002963,45.3056579 Z" id="R" fill="#FFFFFE" fill-rule="nonzero"></path>
                        <path d="M185.788184,69.2309613 L185.788184,51.6961298 L201.7825,69.2309613 L209.428563,69.2309613 L209.428563,65.8019276 L195.462795,51.3064669 C202.640731,50.6830062 207.321995,43.1235456 207.321995,35.7199501 C207.321995,26.9915006 202.172605,20.1334332 188.596942,20.1334332 L177.283889,20.1334332 L177.283889,69.2309613 L185.788184,69.2309613 Z M190.235384,45.3056579 C188.206837,45.3056579 185.788184,44.2925343 185.788184,44.2925343 L185.788184,27.4590961 L188.596942,27.4590961 C195.696858,27.4590961 198.661658,30.5763995 198.661658,35.6420175 C198.661658,40.785568 195.774879,45.3056579 190.235384,45.3056579 Z" id="R" fill="#FFFFFE" fill-rule="nonzero"></path>
                        <path d="M11.1026401,121.169164 C17.5565872,121.169164 22.9881268,117.020343 22.9881268,110.254574 C22.9881268,97.3613164 5.73500098,98.2549085 5.73500098,88.8083632 C5.73500098,85.1701667 8.48272101,83.1276704 11.9333462,83.1276704 C14.3615639,83.1276704 16.981483,84.2765745 18.5150942,86.1914148 L21.3906151,83.7659505 C19.4736012,80.766034 15.4478718,79.0426778 11.9333462,79.0426778 C5.28769772,79.0426778 0.750764633,82.7447023 0.750764633,89.5742993 C0.750764633,101.510137 18.0677909,101.893105 18.0677909,110.190746 C18.0677909,114.211911 15.1922699,117.084171 11.1665406,117.084171 C8.73832288,117.084171 5.54329958,115.296987 3.69018607,113.765115 L1.51757022,117.403311 C4.0096884,119.509635 7.84371636,121.169164 11.1026401,121.169164 Z M59.9448437,121.169164 C70.4245202,121.169164 73.9390458,108.595046 73.9390458,100.105921 C73.9390458,91.6167956 70.4245202,79.0426778 59.9448437,79.0426778 C49.4651673,79.0426778 45.9506417,91.6167956 45.9506417,100.105921 C45.9506417,108.595046 49.4651673,121.169164 59.9448437,121.169164 Z M59.9448437,116.956515 C53.1178004,116.956515 51.1058482,105.525833 51.0633697,100.274933 L51.062679,100.105921 C51.062679,94.935852 53.0435934,83.2553264 59.9448437,83.2553264 C66.8460941,83.2553264 68.8270085,94.935852 68.8270085,100.105921 C68.8270085,105.275989 66.8460941,116.956515 59.9448437,116.956515 Z M104.505716,120.211744 L104.505716,92.8933557 C104.505716,91.0423435 104.377915,89.1913312 104.186214,87.404147 L119.330624,120.211744 L124.570462,120.211744 L124.570462,80.0000979 L119.458425,80.0000979 L119.458425,105.148333 C119.458425,106.999346 119.586226,108.914186 119.777928,110.765198 L106.167128,80.0000979 L99.3936789,80.0000979 L99.3936789,120.211744 L104.505716,120.211744 Z M156.606844,120.211744 L156.606844,80.0000979 L151.622607,80.0000979 L151.622607,120.211744 L156.606844,120.211744 Z M197.58929,121.169164 C201.231616,121.169164 205.83245,119.892604 208.707971,117.594795 L206.535355,114.403395 C204.234938,116.126751 200.720413,117.020343 197.844892,117.020343 C189.34613,117.020343 187.173514,107.127002 187.173514,100.361233 C187.173514,94.3614 190.112935,83.0638424 197.717091,83.0638424 C200.784313,83.0638424 203.532033,83.6382944 206.215853,85.1063387 L208.068966,81.7872822 C205.193445,79.9362699 201.103815,79.0426778 197.717091,79.0426778 C186.66231,79.0426778 182.061477,90.7232034 182.061477,100.105921 C182.061477,109.935434 185.895505,121.169164 197.58929,121.169164 Z" id="SONIC" fill="#FFFFFE" fill-rule="nonzero"></path>
                        <path d="M44.0678932,13.2438761 C43.4327003,10.8041711 42.2168055,6.12081347 41.5816126,3.68110844" id="Fill-11" fill="#EB8B2D"></path>
                        <path d="M47.989528,12.1932057 C47.1598775,9.00561644 46.332898,5.81749302 45.5032475,2.630438 C44.9893235,0.656557966 37.1399637,2.73407338 37.6597641,4.73145835 C38.4894146,7.91904757 39.3163941,11.107171 40.1460447,14.2947602 C40.6599686,16.268106 48.5098627,14.1900564 47.989528,12.1932057" id="Fill-12" fill="#EB8B2D"></path>
                    </g>
                </g>
            </g>
        </g>
    </g>
</svg>