<?xml version="1.0" encoding="UTF-8"?>
<svg width="350px" height="350px" viewBox="0 0 350 350" version="1.1" xmlns="http://www.w3.org/2000/svg" xmlns:xlink="http://www.w3.org/1999/xlink">
    <!-- Generator: Sketch 60.1 (88133) - https://sketch.com -->
    <title>logov</title>
    <desc>Created with Sketch.</desc>
    <g id="logov" stroke="none" stroke-width="1" fill="none" fill-rule="evenodd">
        <g id="Group" transform="translate(73.000000, 45.000000)">
            <g id="Riemer-R-))" transform="translate(50.000000, 0.000000)">
                <g id="Riemer-R">
                    <path d="M95.4143169,24.1528538 C95.4290363,18.0905975 93.6407248,13.1550718 90.0511819,9.34313916 C86.4600634,5.53308906 80.8483892,3.61786665 73.2167896,3.60018477 C67.9265389,3.5868039 63.0024586,4.80295758 58.4410827,7.24687426 C53.883173,9.68984964 49.712547,13.0248593 45.9304652,17.2490794 C42.147438,21.4761234 38.7951812,26.4235721 35.8749552,32.0942495 C32.9559896,37.7677507 30.469055,43.8249868 28.4157268,50.2662713 C26.3608229,56.710066 24.8053859,63.3229801 23.7484701,70.1046998 C22.69313,76.8883022 22.1545883,83.55236 22.1397776,90.0975008 L22.1262274,95.5808604 C33.5818199,92.7208912 43.8475156,88.5120456 52.9252053,82.9527548 C62.0000589,77.3937778 69.6909012,71.2264102 75.9964717,64.4578686 C82.2998364,57.6865031 87.1085823,50.7457045 90.4230246,43.6310799 C93.7343157,36.5177104 95.3997301,30.0265372 95.4143169,24.1528538 M17.9429966,103.222924 C17.8591744,102.452945 17.8175784,101.686103 17.8194692,100.912985 C17.8213599,100.145516 17.7791337,99.3256474 17.6946813,98.4584005 C14.3969404,99.2214773 11.0995146,99.7915886 7.8039795,100.164969 C7.10882265,100.164342 6.76313495,100.308046 6.76250332,100.59671 C6.76187446,100.790931 6.97710208,100.983269 7.41228414,101.178117 C9.14355872,101.566872 10.8997279,101.906679 12.6776404,102.200677 C14.4539772,102.494675 16.2082557,102.835738 17.9429966,103.222924 M101.275247,21.4246659 C101.26035,27.6811428 99.4206736,34.6071945 95.7599133,42.2012522 C92.0972623,49.7959374 86.8331666,57.1920093 79.9660505,64.3944881 C73.0945227,71.5963393 64.7948667,78.1694052 55.0680278,84.1130583 C45.3399285,90.0576526 34.400189,94.5065286 22.2522758,97.4596861 C22.2491246,98.5192709 22.2891449,99.6246655 22.3745427,100.779321 C22.4558439,101.935232 22.5399812,103.08926 22.6266395,104.244857 C31.0312308,105.997549 39.5505261,108.137114 48.1738113,110.660099 C56.7952059,113.182771 65.6567225,116.620696 74.7536346,120.972304 C76.0531935,121.648468 76.6998217,122.371069 76.6982461,123.142618 C76.6973007,123.624247 76.4360654,124.368812 75.9142251,125.377567 C75.3908092,126.388204 74.739139,126.891798 73.9579542,126.889297 C73.697034,126.889297 73.2205711,126.7437 72.527305,126.45284 C70.4493973,125.292537 67.6766479,123.889379 64.2131534,122.246818 C60.7468228,120.60112 56.8257726,118.860351 52.4515785,117.020432 C48.0748634,115.183965 43.3540362,113.366637 38.2846852,111.57347 C33.2153342,109.780616 28.0353758,108.11013 22.750482,106.556993 C23.0019486,109.927144 23.2965867,113.030595 23.6372324,115.868601 C23.9759875,118.707234 24.4061276,120.801616 24.922926,122.15112 C24.9226109,122.632122 24.7262905,122.969106 24.3345951,123.161444 C23.9441603,123.350958 23.1847187,123.542982 22.0569008,123.734065 C21.5375814,123.732496 21.0608034,123.514743 20.6268819,123.079865 C20.1926452,122.645614 19.8053615,121.706829 19.4637704,120.26194 C19.207577,119.202355 18.9280647,117.351768 18.6321661,114.703591 C18.3346919,112.055413 18.1027629,108.903642 17.9379546,105.244199 C15.4254952,104.565839 12.9540014,103.982236 10.5278851,103.493703 C8.10082345,103.008309 5.67470713,102.521973 3.24638496,102.032185 C2.29440453,101.838279 1.51353477,101.595738 0.904721065,101.306133 C0.301894657,101.016214 -0.00188195419,100.487206 -1.33410739e-15,99.716285 C0.00126925547,99.0423174 0.69737147,98.7059612 2.08421884,98.7103539 C4.77220068,98.5242912 7.41890168,98.2415888 10.0214857,97.8625605 C12.6247,97.4841597 15.182852,97.0586942 17.6994081,96.5814574 L17.7098071,92.252126 C17.7255631,86.0929163 18.2177821,79.5477755 19.1915058,72.62141 C20.1592423,65.693162 21.6507099,58.8169989 23.662127,51.9882144 C25.6738592,45.160685 28.2474522,38.5957769 31.3863721,32.2994519 C34.5246618,26.0050094 38.2881515,20.4780365 42.6790471,15.7263772 C47.0702577,10.9715802 52.1109327,7.15682366 57.798551,4.28399004 C63.4858542,1.41052889 69.8878518,-0.0171024999 76.9982412,1.09303842e-14 C85.3249976,0.0199217866 91.455676,2.03303893 95.3931125,6.03605458 C99.3292885,10.0400115 101.290286,15.1697578 101.275247,21.4246659" id="Fill-9" fill="#9E754E" fill-rule="evenodd"></path>
                    <path d="M95.4143169,24.1528538 C95.4290363,18.0905975 93.6407248,13.1550718 90.0511819,9.34313916 C86.4600634,5.53308906 80.8483892,3.61786665 73.2167896,3.60018477 C67.9265389,3.5868039 63.0024586,4.80295758 58.4410827,7.24687426 C53.883173,9.68984964 49.712547,13.0248593 45.9304652,17.2490794 C42.147438,21.4761234 38.7951812,26.4235721 35.8749552,32.0942495 C32.9559896,37.7677507 30.469055,43.8249868 28.4157268,50.2662713 C26.3608229,56.710066 24.8053859,63.3229801 23.7484701,70.1046998 C22.69313,76.8883022 22.1545883,83.55236 22.1397776,90.0975008 L22.1262274,95.5808604 C33.5818199,92.7208912 43.8475156,88.5120456 52.9252053,82.9527548 C62.0000589,77.3937778 69.6909012,71.2264102 75.9964717,64.4578686 C82.2998364,57.6865031 87.1085823,50.7457045 90.4230246,43.6310799 C93.7343157,36.5177104 95.3997301,30.0265372 95.4143169,24.1528538 Z M17.9429966,103.222924 C17.8591744,102.452945 17.8175784,101.686103 17.8194692,100.912985 C17.8213599,100.145516 17.7791337,99.3256474 17.6946813,98.4584005 C14.3969404,99.2214773 11.0995146,99.7915886 7.8039795,100.164969 C7.10882265,100.164342 6.76313495,100.308046 6.76250332,100.59671 C6.76187446,100.790931 6.97710208,100.983269 7.41228414,101.178117 C9.14355872,101.566872 10.8997279,101.906679 12.6776404,102.200677 C14.4539772,102.494675 16.2082557,102.835738 17.9429966,103.222924 Z M101.275247,21.4246659 C101.26035,27.6811428 99.4206736,34.6071945 95.7599133,42.2012522 C92.0972623,49.7959374 86.8331666,57.1920093 79.9660505,64.3944881 C73.0945227,71.5963393 64.7948667,78.1694052 55.0680278,84.1130583 C45.3399285,90.0576526 34.400189,94.5065286 22.2522758,97.4596861 C22.2491246,98.5192709 22.2891449,99.6246655 22.3745427,100.779321 C22.4558439,101.935232 22.5399812,103.08926 22.6266395,104.244857 C31.0312308,105.997549 39.5505261,108.137114 48.1738113,110.660099 C56.7952059,113.182771 65.6567225,116.620696 74.7536346,120.972304 C76.0531935,121.648468 76.6998217,122.371069 76.6982461,123.142618 C76.6973007,123.624247 76.4360654,124.368812 75.9142251,125.377567 C75.3908092,126.388204 74.739139,126.891798 73.9579542,126.889297 C73.697034,126.889297 73.2205711,126.7437 72.527305,126.45284 C70.4493973,125.292537 67.6766479,123.889379 64.2131534,122.246818 C60.7468228,120.60112 56.8257726,118.860351 52.4515785,117.020432 C48.0748634,115.183965 43.3540362,113.366637 38.2846852,111.57347 C33.2153342,109.780616 28.0353758,108.11013 22.750482,106.556993 C23.0019486,109.927144 23.2965867,113.030595 23.6372324,115.868601 C23.9759875,118.707234 24.4061276,120.801616 24.922926,122.15112 C24.9226109,122.632122 24.7262905,122.969106 24.3345951,123.161444 C23.9441603,123.350958 23.1847187,123.542982 22.0569008,123.734065 C21.5375814,123.732496 21.0608034,123.514743 20.6268819,123.079865 C20.1926452,122.645614 19.8053615,121.706829 19.4637704,120.26194 C19.207577,119.202355 18.9280647,117.351768 18.6321661,114.703591 C18.3346919,112.055413 18.1027629,108.903642 17.9379546,105.244199 C15.4254952,104.565839 12.9540014,103.982236 10.5278851,103.493703 C8.10082345,103.008309 5.67470713,102.521973 3.24638496,102.032185 C2.29440453,101.838279 1.51353477,101.595738 0.904721065,101.306133 C0.301894657,101.016214 -0.00188195419,100.487206 -1.33410739e-15,99.716285 C0.00126925547,99.0423174 0.69737147,98.7059612 2.08421884,98.7103539 C4.77220068,98.5242912 7.41890168,98.2415888 10.0214857,97.8625605 C12.6247,97.4841597 15.182852,97.0586942 17.6994081,96.5814574 L17.7098071,92.252126 C17.7255631,86.0929163 18.2177821,79.5477755 19.1915058,72.62141 C20.1592423,65.693162 21.6507099,58.8169989 23.662127,51.9882144 C25.6738592,45.160685 28.2474522,38.5957769 31.3863721,32.2994519 C34.5246618,26.0050094 38.2881515,20.4780365 42.6790471,15.7263772 C47.0702577,10.9715802 52.1109327,7.15682366 57.798551,4.28399004 C63.4858542,1.41052889 69.8878518,-0.0171024999 76.9982412,1.09303842e-14 C85.3249976,0.0199217866 91.455676,2.03303893 95.3931125,6.03605458 C99.3292885,10.0400115 101.290286,15.1697578 101.275247,21.4246659 Z" id="Stroke-10" stroke="#9D754F" stroke-width="2.16"></path>
                </g>
                <g id="Group" stroke-width="1" fill-rule="evenodd" transform="translate(114.052755, 31.726239) rotate(-30.000000) translate(-114.052755, -31.726239) translate(93.332512, 10.117344)" fill="#EB8B2D">
                    <path d="M38.7694216,8.8718455 C35.5278865,14.4908785 32.1536314,20.471513 26.0760668,25.8003667 C19.9945978,31.1287561 12.6492007,35.99193 4.04071204,40.389424 C1.59668332,41.6379487 1.11590882,40.7735937 2.59838855,37.796359 C11.8215144,32.8266162 18.9275207,28.0839477 23.9164073,23.5683536 C27.9408921,19.9256692 29.9783553,16.6523108 32.6815218,12.7043676 C36.4823606,7.15328682 37.8898409,3.53057857 38.7694216,2.31235543 C40.2745622,0.227728798 40.4498558,5.95763614 38.7694216,8.8718455 Z" id="Fill-9" transform="translate(20.861862, 21.404288) rotate(-4.000000) translate(-20.861862, -21.404288) "></path>
                    <path d="M24.2060081,14.9051483 C18.6765764,20.1191082 11.8324956,23.8385429 3.11118067,28.1086632 C0.635119526,29.3210244 1.39663784,28.5791779 5.39573561,25.8831239 C8.84331875,23.6284121 13.0942468,20.3086565 18.1485198,15.9238568 C22.2257511,12.3866829 23.8029923,10.3409739 26.5415876,6.50738319 C30.3922418,1.11708979 29.7354397,9.69118844 24.2060081,14.9051483 Z" id="Fill-9" transform="translate(15.335973, 16.732590) rotate(-8.000000) translate(-15.335973, -16.732590) "></path>
                </g>
            </g>
            <g id="LogoTextOutline" transform="translate(0.000000, 155.000000)">
                <g id="LogoRiemerDia" transform="translate(2.473197, 1.238686)">
                    <g id="Group-13">
                        <path d="M39.5394589,9.16719309 C38.9480193,6.89161312 37.8158775,2.52331675 37.2244379,0.247736785" id="Fill-2" fill="#F1A948"></path>
                        <path d="M136.369215,47.664555 C141.287764,45.8394074 145.123416,43.0426414 147.875675,39.2603056 C150.625446,35.4804611 151.461122,31.8446155 150.375241,28.347786 C149.406255,25.2216663 147.55782,24.0801394 144.830432,24.9331704 C141.574281,25.942657 139.121971,28.6611952 137.478475,33.0833043 C135.83299,37.5138839 135.462407,42.3734704 136.369215,47.664555 M137.179522,51.2849544 C139.402022,58.4525081 143.480418,61.1087632 149.415209,59.2651797 C151.968497,58.4689509 154.460601,57.0165061 156.891523,54.9053538 C159.358756,52.7638074 163.054134,55.1240925 159.966113,58.3608272 C159.511963,58.8331832 159.097607,59.243256 158.735481,59.5596548 C155.412675,62.4670358 151.939149,64.4865071 148.313907,65.6145809 C144.006695,66.9544177 140.159602,66.5916802 136.777602,64.5268667 C133.39411,62.4615549 130.937322,58.9662202 129.409727,54.0383713 C127.203145,46.9331008 127.588152,40.1457239 130.557289,33.6802268 C133.526425,27.2227018 138.203722,22.9974078 144.596642,21.0073341 C147.683668,20.0466776 150.402599,20.073584 152.751445,21.091541 C155.098799,22.1035189 156.68907,23.9471024 157.517782,26.6207967 C158.877745,31.0075289 157.50087,35.688238 153.394617,40.6753805 C149.282396,45.6640178 143.878359,49.197719 137.179522,51.2849544" id="Fill-4" fill="#FFFFFE"></path>
                        <path d="M56.9357919,46.5604977 C61.8528486,44.7333569 65.6889985,41.9360927 68.4407596,38.1537569 C71.1920232,34.376902 72.0272016,30.7380668 70.9413205,27.2442269 C69.9723345,24.1151176 68.1229043,22.9735906 65.3950197,23.82712 C62.1388686,24.8361083 59.6885478,27.5576361 58.0430623,31.9827348 C56.3975768,36.4073352 56.026497,41.2664234 56.9357919,46.5604977 M57.7441092,50.1813953 C59.9671064,57.348949 64.0455028,60.0052041 69.9807907,58.1611223 C72.5340788,57.3624022 75.0261834,55.912947 77.4571047,53.8012964 C79.9238406,51.6577569 83.6197163,54.0230247 80.5297055,57.2567698 C80.0780427,57.7296241 79.661697,58.1396969 79.3005657,58.4560957 C75.9782569,61.3634767 72.5052281,63.3799584 68.8799868,64.5085305 C64.5732718,65.8508586 60.7251837,65.4881211 57.3436812,63.4203179 C53.9596916,61.3550062 51.5034017,57.8621628 49.9763036,52.9348122 C47.7687267,45.8265521 48.1537345,39.0391752 51.1223733,32.579159 C54.0915096,26.1191427 58.7702992,21.8938486 65.1622243,19.9007854 C68.249748,18.9401289 70.9681815,18.9700248 73.3180223,19.9879819 C75.6638837,20.9999598 77.2541548,22.8435433 78.0838615,25.5162411 C79.4428296,29.9009802 78.066949,34.5846789 73.9592045,39.5718214 C69.847978,44.5574691 64.4429462,48.0971494 57.7441092,50.1813953" id="Fill-6" fill="#FFFFFE"></path>
                        <path d="M91.8156733,64.4017634 L91.8156733,39.1487409 L91.2344522,33.8361454 L101.841736,64.4017634 L108.380473,64.4017634 L118.987758,33.8361454 L118.406536,39.1487409 L118.406536,64.4017634 L126.325673,64.4017634 L126.325673,18.5533365 L117.026136,18.5533365 L106.128242,49.6283814 C105.401715,51.7388645 105.111105,53.7037971 105.111105,53.7037971 C105.111105,53.7037971 104.820494,51.8116398 104.093968,49.6283814 L93.1960733,18.5533365 L83.8965365,18.5533365 L83.8965365,64.4017634 L91.8156733,64.4017634 Z" id="M" fill="#FFFFFE" fill-rule="nonzero"></path>
                        <polygon id="I" fill="#FFFFFE" fill-rule="nonzero" points="44.2851821 64.4017634 44.2851821 18.5533365 36.4386979 18.5533365 36.4386979 64.4017634"></polygon>
                        <path d="M10.8222347,64.4017634 L10.8222347,48.0273252 L25.7160242,64.4017634 L32.8359821,64.4017634 L32.8359821,61.1996511 L19.831161,47.6634488 C26.5152031,47.0812466 30.874361,40.0220443 30.874361,33.1083926 C30.874361,24.9575612 26.0792873,18.5533365 13.4377294,18.5533365 L2.90309786,18.5533365 L2.90309786,64.4017634 L10.8222347,64.4017634 Z M14.9634347,42.0597522 C13.0744663,42.0597522 10.8222347,41.1136735 10.8222347,41.1136735 L10.8222347,25.3942129 L13.4377294,25.3942129 C20.0491189,25.3942129 22.8099189,28.3052241 22.8099189,33.0356174 C22.8099189,37.8387859 20.1217715,42.0597522 14.9634347,42.0597522 Z" id="R" fill="#FFFFFE" fill-rule="nonzero"></path>
                        <path d="M172.509954,64.4017634 L172.509954,48.0273252 L187.403743,64.4017634 L194.523701,64.4017634 L194.523701,61.1996511 L181.51888,47.6634488 C188.202922,47.0812466 192.56208,40.0220443 192.56208,33.1083926 C192.56208,24.9575612 187.767007,18.5533365 175.125449,18.5533365 L164.590817,18.5533365 L164.590817,64.4017634 L172.509954,64.4017634 Z M176.651154,42.0597522 C174.762186,42.0597522 172.509954,41.1136735 172.509954,41.1136735 L172.509954,25.3942129 L175.125449,25.3942129 C181.736838,25.3942129 184.497638,28.3052241 184.497638,33.0356174 C184.497638,37.8387859 181.809491,42.0597522 176.651154,42.0597522 Z" id="R" fill="#FFFFFE" fill-rule="nonzero"></path>
                        <path d="M9.84405762,112.902879 C15.8539258,112.902879 20.9117356,109.028613 20.9117356,102.710578 C20.9117356,90.6705509 4.84575144,91.5050082 4.84575144,82.6836019 C4.84575144,79.2861684 7.40440817,77.3788373 10.617605,77.3788373 C12.8787435,77.3788373 15.3183929,78.4517111 16.7464804,80.239834 L19.4241444,77.9748783 C17.6390351,75.1734858 13.8903055,73.5641752 10.617605,73.5641752 C4.42922593,73.5641752 0.20446714,77.0212128 0.20446714,83.3988511 C0.20446714,94.5448172 16.3299549,94.9024417 16.3299549,102.650974 C16.3299549,106.406032 13.6522909,109.088217 9.90356126,109.088217 C7.64242275,109.088217 4.66724051,107.419302 2.94163481,105.988804 L0.918510879,109.386237 C3.23915303,111.353172 6.80937173,112.902879 9.84405762,112.902879 Z M55.3255592,112.902879 C65.0841569,112.902879 68.3568574,101.160872 68.3568574,93.233527 C68.3568574,85.3061822 65.0841569,73.5641752 55.3255592,73.5641752 C45.5669614,73.5641752 42.2942609,85.3061822 42.2942609,93.233527 C42.2942609,101.160872 45.5669614,112.902879 55.3255592,112.902879 Z M55.3255592,108.969009 C48.9682665,108.969009 47.0947514,98.2947687 47.0551957,93.3913544 L47.0545525,93.233527 C47.0545525,88.4055952 48.8991655,77.4980455 55.3255592,77.4980455 C61.7519528,77.4980455 63.5965658,88.4055952 63.5965658,93.233527 C63.5965658,98.0614589 61.7519528,108.969009 55.3255592,108.969009 Z M96.8203165,112.008817 L96.8203165,86.4982641 C96.8203165,84.7697453 96.7013092,83.0412265 96.5227983,81.3723118 L110.625162,112.008817 L115.504461,112.008817 L115.504461,74.4582366 L110.744169,74.4582366 L110.744169,97.9422507 C110.744169,99.6707695 110.863177,101.458892 111.041688,103.187411 L98.3674113,74.4582366 L92.0600249,74.4582366 L92.0600249,112.008817 L96.8203165,112.008817 Z M145.336504,112.008817 L145.336504,74.4582366 L140.69522,74.4582366 L140.69522,112.008817 L145.336504,112.008817 Z M183.499057,112.902879 C186.890765,112.902879 191.175027,111.710797 193.852691,109.56505 L191.829567,106.584845 C189.687436,108.194155 186.414736,109.028613 183.737072,109.028613 C175.823087,109.028613 173.799963,99.7899777 173.799963,93.4719434 C173.799963,87.8691583 176.537131,77.3192332 183.618064,77.3192332 C186.474239,77.3192332 189.032896,77.8556701 191.532049,79.2265643 L193.257655,76.1271513 C190.579991,74.3986325 186.771758,73.5641752 183.618064,73.5641752 C173.323934,73.5641752 169.039671,84.4717248 169.039671,93.233527 C169.039671,102.412558 172.60989,112.902879 183.499057,112.902879 Z" id="SONIC" fill="#FFFFFE" fill-rule="nonzero"></path>
                        <path d="M40.5410593,12.1197059 C39.9495724,9.84145195 38.81734,5.46802244 38.2258531,3.18976847" id="Fill-11" fill="#EB8B2D"></path>
                        <path d="M44.1928569,11.1385651 C43.4202924,8.16191933 42.6502152,5.18477466 41.8776507,2.20862769 C41.3990885,0.365372073 34.0898222,2.30540485 34.5738565,4.17060993 C35.3464211,7.14725575 36.1164982,10.1244004 36.8890628,13.1010462 C37.367625,14.943803 44.6773887,13.0032714 44.1928569,11.1385651" id="Fill-12" fill="#EB8B2D"></path>
                    </g>
                </g>
            </g>
        </g>
    </g>
</svg>